#N canvas 47 23 997 739 12;
#X obj -572 -32 hsl 256 30 0 127 0 0 empty empty Acceleration_X 60
16 0 15 -1 -262144 -4034 0 1;
#X obj -572 -1 hsl 256 30 0 127 0 0 empty empty Acceleration_Y 60 16
0 15 -1 -262144 -4034 0 1;
#X obj -572 29 hsl 256 30 0 127 0 0 empty empty Acceleration_Z 60 16
0 15 -1 -262144 -4034 0 1;
#X obj -573 67 hsl 256 30 0 127 0 0 empty empty Gyro_X 60 16 0 15 -1
-262144 -4034 0 1;
#X obj -573 98 hsl 256 30 0 127 0 0 empty empty Gyro_Y 60 16 0 15 -1
-262144 -4034 0 1;
#X obj -573 128 hsl 256 30 0 127 0 0 empty empty Gyro_Y 60 16 0 15
-1 -262144 -4034 0 1;
#X obj -573 167 hsl 256 30 0 127 0 0 empty empty Orientation_X 60 16
0 15 -1 -262144 -4034 0 1;
#X obj -573 198 hsl 256 30 0 127 0 0 empty empty Orientation_Y 60 16
0 15 -1 -262144 -4034 0 1;
#X obj -573 229 hsl 256 30 0 127 0 0 empty empty Orientation_Z 60 16
0 15 -1 -262144 -4034 0 1;
#X obj -573 274 hsl 256 30 0 127 0 0 empty empty Yaw 60 16 0 15 -1
-262144 -4034 0 1;
#X obj -573 305 hsl 256 30 0 127 0 0 empty empty Pitch 60 16 0 15 -1
-262144 -4034 0 1;
#X obj -573 335 hsl 256 30 0 127 0 0 empty empty Roll 60 16 0 15 -1
-262144 -4034 0 1;
#X text -556 -83 To know more about it \, please visit: www.balandinodidonato.com
;
#X text -195 504 Balandino Di Donato - 2015;
#X text -580 -145 This patch has been developed by Balandino Di Donato
as a part of his Research \, conducted at the Integra Lab of the Birmingham
Conservatoire (Birmingham City University).;
#X text -191 522 www.balandinodidonato.com;
#X obj -576 378 cnv 15 261 60 pose_snd pose_rcv Pose:Fist 5 30 0 20
-1 -4034 0;
#X obj -98 -149 route accelerationX accelerationY accelerationZ gyroX
gyroY gyroZ orientationX orientationY orientationZ yaw pitch roll rest
waveIn waveOut fist doubleTap fingersSpread unkbown;
#X floatatom -98 -58 5 0 0 0 accelerationX - -;
#X floatatom -74 -28 5 0 0 0 accelerationY - -;
#X floatatom -49 0 5 0 0 0 accelerationZ - -;
#X floatatom -24 46 5 0 0 0 gyroX - -;
#X floatatom 0 70 5 0 0 0 gyroY - -;
#X floatatom 25 95 5 0 0 0 gyroZ - -;
#X floatatom 50 135 5 0 0 0 orientationX - -;
#X floatatom 74 158 5 0 0 0 orientationY - -;
#X floatatom 99 182 5 0 0 0 orientationZ - -;
#X floatatom 124 227 5 0 0 0 yaw - -;
#X floatatom 148 249 5 0 0 0 pitch - -;
#X floatatom 173 273 5 0 0 0 roll - -;
#X floatatom 198 340 5 0 0 0 rest - -;
#X floatatom 222 363 5 0 0 0 waveIn - -;
#X floatatom 247 385 5 0 0 0 waveOut - -;
#X floatatom 296 434 5 0 0 0 doubleTap - -;
#X floatatom 321 457 5 0 0 0 fingersSpread - -;
#X floatatom 346 481 5 0 0 0 uncknown - -;
#X obj -98 -186 MyoToMIDI;
#N canvas 0 151 1396 146 pose 0;
#X obj 196 50 sel 127;
#X msg 196 85 \; pose_rcv label Pose:Wave_In;
#X obj 196 14 r waveIn;
#X obj 410 57 sel 127;
#X msg 410 86 \; pose_rcv label Pose:Wave_Out;
#X obj 410 21 r waveOut;
#X obj 6 57 sel 127;
#X obj 6 21 r rest;
#X msg 6 86 \; pose_rcv label Pose:Rest;
#X obj 633 56 sel 127;
#X obj 633 20 r fingersSpread;
#X msg 633 85 \; pose_rcv label Pose:Fingers_Spread;
#X obj 897 54 sel 127;
#X obj 897 18 r doubleTap;
#X msg 897 83 \; pose_rcv label Pose:Double_Tap;
#X obj 1132 53 sel 127;
#X obj 1132 17 r fist;
#X msg 1132 82 \; pose_rcv label Pose:Fist;
#X obj 1328 52 sel 127;
#X msg 1328 81 \; pose_rcv label Pose:Unknowen;
#X obj 1328 16 r unknown;
#X connect 0 0 1 0;
#X connect 2 0 0 0;
#X connect 3 0 4 0;
#X connect 5 0 3 0;
#X connect 6 0 8 0;
#X connect 7 0 6 0;
#X connect 9 0 11 0;
#X connect 10 0 9 0;
#X connect 12 0 14 0;
#X connect 13 0 12 0;
#X connect 15 0 17 0;
#X connect 16 0 15 0;
#X connect 18 0 19 0;
#X connect 20 0 18 0;
#X restore -576 444 pd pose;
#X floatatom 272 409 5 0 0 0 fist - fist;
#X text -581 -193 "Myo2MIDI-example" is a patch able to receive MIDI
data from the Thalmic Myo Armband.;
#X connect 17 0 18 0;
#X connect 17 1 19 0;
#X connect 17 2 20 0;
#X connect 17 3 21 0;
#X connect 17 4 22 0;
#X connect 17 5 23 0;
#X connect 17 6 24 0;
#X connect 17 7 25 0;
#X connect 17 8 26 0;
#X connect 17 9 27 0;
#X connect 17 10 28 0;
#X connect 17 11 29 0;
#X connect 17 12 30 0;
#X connect 17 13 31 0;
#X connect 17 14 32 0;
#X connect 17 15 38 0;
#X connect 17 16 33 0;
#X connect 17 17 34 0;
#X connect 17 18 35 0;
#X connect 36 0 17 0;
#X coords 0 739 1 738 85 60 0;
